# xmcd
#
# Track frame offsets:
#	150
#	19720
#	32007
#	43540
#	64635
#	80465
#	102717
#	123540
#	139127
#	154635
#	169285
#
# Disc length: 2481 seconds
#
# Revision: 0
# Processed by: cddbd v1.4PL0 Copyright (c) Steve Scherf et al.
# Submitted via: dBpowerAMP V4.0
#
DISCID=8f09af0b
DTITLE=Ted Hawkins - The Next Hundred Years
DYEAR=1900
DGENRE=R&B
TTITLE0=Strange Conversation
TTITLE1=Big Things
TTITLE2=There Stands The Glass
TTITLE3=Biloxi
TTITLE4=Groovy Little Things
TTITLE5=The Good And The Bad
TTITLE6=Afraid
TTITLE7=Green-Eyed Girl
TTITLE8=Ladder Of Success
TTITLE9=Long As I Can See The Light
TTITLE10=corrina, Corrina (bonus Track)
EXTD=
EXTT0=
EXTT1=
EXTT2=
EXTT3=
EXTT4=
EXTT5=
EXTT6=
EXTT7=
EXTT8=
EXTT9=
EXTT10=
PLAYORDER=
